<svg width="27" height="26" viewBox="0 0 27 26" fill="none" xmlns="http://www.w3.org/2000/svg">
<g id="Group 48095478">
<path id="Vector" d="M21.0643 7.61097C20.0514 7.39438 19.1342 6.86005 18.4464 6.08586C17.7586 5.31167 17.3361 4.33811 17.2406 3.3071V2.85999H13.7465V16.7216C13.7444 17.3352 13.5499 17.9328 13.1905 18.4303C12.8311 18.9278 12.3247 19.3002 11.7426 19.4952C11.1606 19.6902 10.532 19.698 9.94525 19.5175C9.35851 19.337 8.8431 18.9772 8.47146 18.4888C8.09404 17.9921 7.88467 17.3883 7.87373 16.7647C7.86278 16.1411 8.05081 15.5303 8.41057 15.0207C8.77032 14.5112 9.28309 14.1294 9.87451 13.9308C10.4659 13.7322 11.1053 13.7271 11.6998 13.9162V10.3677C10.374 10.1845 9.02413 10.4201 7.83892 11.0416C6.65371 11.663 5.69246 12.6393 5.08963 13.8338C4.48681 15.0282 4.27255 16.3812 4.47683 17.7034C4.68112 19.0256 5.29372 20.2509 6.22896 21.2079C7.12084 22.1202 8.26443 22.746 9.51375 23.0056C10.7631 23.2653 12.0614 23.1468 13.2431 22.6655C14.4248 22.1842 15.4362 21.3618 16.1482 20.3033C16.8602 19.2447 17.2405 17.9981 17.2406 16.7226V9.63972C18.6527 10.6489 20.3458 11.19 22.0816 11.1869V7.71641C21.7398 7.71683 21.3988 7.68149 21.0643 7.61097Z" fill="white"/>
</g>
</svg>
