<svg width="27" height="26" viewBox="0 0 27 26" fill="none" xmlns="http://www.w3.org/2000/svg">
<g id="Group 48095477">
<g id="Group 48095474">
<path id="Vector" fill-rule="evenodd" clip-rule="evenodd" d="M13.8277 18.4756C16.8517 18.4756 19.3033 16.024 19.3033 13C19.3033 9.97586 16.8517 7.52435 13.8277 7.52435C10.8036 7.52435 8.35205 9.97586 8.35205 13C8.35205 16.024 10.8036 18.4756 13.8277 18.4756ZM13.8277 16.6504C15.8437 16.6504 17.4781 15.016 17.4781 13C17.4781 10.9839 15.8437 9.34955 13.8277 9.34955C11.8116 9.34955 10.1773 10.9839 10.1773 13C10.1773 15.016 11.8116 16.6504 13.8277 16.6504Z" fill="white"/>
<path id="Vector_2" d="M19.4048 6.51044C18.9008 6.51044 18.4922 6.96443 18.4922 7.52444C18.4922 8.08445 18.9008 8.53844 19.4048 8.53844C19.9088 8.53844 20.3174 8.08445 20.3174 7.52444C20.3174 6.96443 19.9088 6.51044 19.4048 6.51044Z" fill="white"/>
<path id="Vector_3" fill-rule="evenodd" clip-rule="evenodd" d="M4.29033 5.87992C3.6875 7.06304 3.6875 8.61185 3.6875 11.7094V14.2905C3.6875 17.3881 3.6875 18.937 4.29033 20.12C4.8206 21.1607 5.66672 22.0069 6.70743 22.5371C7.89056 23.14 9.43936 23.14 12.537 23.14H15.118C18.2156 23.14 19.7645 23.14 20.9475 22.5371C21.9883 22.0069 22.8344 21.1607 23.3646 20.12C23.9675 18.937 23.9675 17.3881 23.9675 14.2905V11.7094C23.9675 8.61185 23.9675 7.06304 23.3646 5.87992C22.8344 4.8392 21.9883 3.99308 20.9475 3.46282C19.7645 2.85999 18.2156 2.85999 15.118 2.85999H12.537C9.43936 2.85999 7.89056 2.85999 6.70743 3.46282C5.66672 3.99308 4.8206 4.8392 4.29033 5.87992ZM15.118 4.70362H12.537C10.9577 4.70362 9.88419 4.70506 9.0544 4.77285C8.24611 4.83889 7.83277 4.95859 7.54442 5.10551C6.85062 5.45902 6.28654 6.0231 5.93302 6.71691C5.7861 7.00525 5.6664 7.4186 5.60036 8.22688C5.53257 9.05668 5.53114 10.1302 5.53114 11.7094V14.2905C5.53114 15.8698 5.53257 16.9432 5.60036 17.7731C5.6664 18.5814 5.7861 18.9948 5.93302 19.2831C6.28654 19.9769 6.85062 20.5409 7.54442 20.8944C7.83277 21.0414 8.24611 21.1611 9.0544 21.2271C9.88419 21.2949 10.9577 21.2963 12.537 21.2963H15.118C16.6973 21.2963 17.7708 21.2949 18.6006 21.2271C19.4089 21.1611 19.8223 21.0414 20.1106 20.8944C20.8044 20.5409 21.3684 19.9769 21.722 19.2831C21.8689 18.9948 21.9886 18.5814 22.0546 17.7731C22.1224 16.9432 22.1239 15.8698 22.1239 14.2905V11.7094C22.1239 10.1302 22.1224 9.05668 22.0546 8.22688C21.9886 7.4186 21.8689 7.00525 21.722 6.71691C21.3684 6.0231 20.8044 5.45902 20.1106 5.10551C19.8223 4.95859 19.4089 4.83889 18.6006 4.77285C17.7708 4.70506 16.6973 4.70362 15.118 4.70362Z" fill="white"/>
</g>
</g>
</svg>
