<svg width="26" height="26" viewBox="0 0 26 26" fill="none" xmlns="http://www.w3.org/2000/svg">
<g id="Group 48095475">
<g id="7935ec95c421cee6d86eb22ecd11b7e3">
<path id="Vector" d="M14.0198 7.68886C14.0198 7.89682 14.0198 8.57464 14.0198 9.5376H17.3307L16.9717 12.489H14.0198C14.0198 17.0406 14.0198 23.14 14.0198 23.14H10.1017C10.1017 23.14 10.1017 17.1213 10.1017 12.489H8.06006V9.5376H10.1017C10.1017 8.36715 10.1017 7.53488 10.1017 7.30314C10.1017 6.19905 10.0185 5.67519 10.4876 4.81961C10.957 3.96408 12.281 2.83324 14.5709 2.86047C16.8613 2.88869 17.8268 3.10903 17.8268 3.10903L17.3307 6.2545C17.3307 6.2545 15.8681 5.8683 15.1502 6.00594C14.4332 6.14361 14.0198 6.58525 14.0198 7.68886Z" fill="white"/>
</g>
</g>
</svg>
