<svg width="27" height="26" viewBox="0 0 27 26" fill="none" xmlns="http://www.w3.org/2000/svg">
<g id="Group 48095479">
<g id="Page-1">
<g id="Dribbble-Light-Preview">
<g id="icons">
<path id="youtube-[#168]" fill-rule="evenodd" clip-rule="evenodd" d="M11.5631 15.6896V9.8533C13.635 10.8282 15.2397 11.77 17.1375 12.7854C15.5722 13.6535 13.635 14.6275 11.5631 15.6896ZM23.1098 6.95065C22.7524 6.47978 22.1432 6.11324 21.4947 5.9919C19.5886 5.62992 7.69695 5.6289 5.79185 5.9919C5.2718 6.08939 4.80872 6.32503 4.41091 6.69115C2.73475 8.24689 3.25998 16.5898 3.664 17.9412C3.83389 18.5262 4.05352 18.9481 4.33012 19.225C4.68649 19.5911 5.17441 19.8432 5.73486 19.9562C7.30432 20.2809 15.3899 20.4624 21.4616 20.005C22.021 19.9075 22.5162 19.6473 22.9067 19.2656C24.4565 17.7161 24.3508 8.90465 23.1098 6.95065Z" fill="white"/>
</g>
</g>
</g>
</g>
</svg>
