<svg xmlns="http://www.w3.org/2000/svg" width="1440" height="261" viewBox="0 0 1440 261" fill="none">
  <path d="M1365.26 18.9016C523.852 53.4523 -154.226 126.422 -149.3 181.878C-144.337 237.335 756.625 274.442 1599.1 256.058C2467.74 237.132 2902.66 112.134 2897.7 56.7022C2892.73 1.24553 2206.63 -15.6734 1365.22 18.9017L1365.26 18.9016ZM1655.18 133.405C1457 146 1217.09 113.782 1217 91.0154C1216.91 68.2488 1492.86 33.638 1655.18 33C1817.51 32.362 1948.81 68.2488 1948.9 91.0154C1948.99 113.782 1817.51 132.766 1655.18 133.405Z" fill="url(#paint0_linear_93_254)"/>
  <defs>
    <linearGradient id="paint0_linear_93_254" x1="298" y1="187.5" x2="300.5" y2="65" gradientUnits="userSpaceOnUse">
      <stop stop-color="#C5CCD5"/>
      <stop offset="1" stop-color="#8291A5"/>
    </linearGradient>
  </defs>
</svg>