<svg width="1440" height="269" viewBox="0 0 1440 269" fill="none" xmlns="http://www.w3.org/2000/svg">
<path d="M1365.26 20.9016C523.852 55.4523 -154.226 128.422 -149.3 183.878C-144.337 239.335 756.625 276.442 1599.1 258.058C2467.74 239.132 2902.66 114.134 2897.7 58.7022C2892.73 3.24554 2206.63 -13.6734 1365.22 20.9017L1365.26 20.9016ZM1655.18 135.405C1457 148 1217.09 115.782 1217 93.0155C1216.91 70.2488 1492.86 35.638 1655.18 35C1817.51 34.362 1948.81 70.2488 1948.9 93.0155C1948.99 115.782 1817.51 134.767 1655.18 135.405Z" fill="url(#paint0_linear_127_32)"/>
<path d="M1269.13 35.0253C691.45 60.2766 225.785 117.097 229.017 161.933C232.274 206.769 850.642 239.622 1429.01 227.44C2025.34 214.903 2324.23 115.261 2320.97 70.4442C2317.72 25.6079 1846.78 9.75432 1269.1 35.0253H1269.13ZM1467.84 128.488C1356.44 128.488 1266.1 113.563 1266.1 95.1624C1266.1 76.7619 1356.41 61.8363 1467.84 61.8363C1579.27 61.8363 1669.58 76.7619 1669.58 95.1624C1669.58 113.563 1579.27 128.488 1467.84 128.488Z" fill="#1464F4"/>
<defs>
<linearGradient id="paint0_linear_127_32" x1="298" y1="189.5" x2="300.5" y2="67" gradientUnits="userSpaceOnUse">
<stop stop-color="#C5CCD5"/>
<stop offset="1" stop-color="#8291A5"/>
</linearGradient>
</defs>
</svg>
